<?xml version="1.0" standalone="no"?>
<!DOCTYPE svg PUBLIC "-//W3C//DTD SVG 20010904//EN"
 "http://www.w3.org/TR/2001/REC-SVG-20010904/DTD/svg10.dtd">
<svg version="1.0" xmlns="http://www.w3.org/2000/svg"
 width="240.000000pt" height="240.000000pt" viewBox="0 0 240.000000 240.000000"
 preserveAspectRatio="xMidYMid meet">
<metadata>
Created by potrace 1.14, written by Peter Selinger 2001-2017
</metadata>
<g transform="translate(0.000000,240.000000) scale(0.100000,-0.100000)"
fill="#000000" stroke="none">
<path d="M2104 1597 c-142 -106 -280 -208 -306 -227 -193 -141 -500 -373 -583
-439 -55 -44 -102 -81 -105 -81 -3 0 -11 15 -19 33 -31 69 -128 223 -174 273
-98 108 -224 164 -366 164 -162 0 -274 -60 -301 -160 -8 -29 -18 -41 -50 -55
-55 -25 -135 -112 -170 -187 -34 -72 -41 -163 -16 -223 19 -45 100 -125 151
-150 63 -31 157 -25 240 14 102 47 141 38 155 -35 5 -30 9 -35 15 -21 18 42
-27 107 -74 107 -16 0 -59 -14 -96 -32 -123 -57 -214 -47 -303 36 -116 107
-115 245 5 388 32 39 106 98 123 98 4 0 10 -24 13 -54 14 -140 132 -256 259
-256 71 0 170 46 198 92 42 68 13 167 -62 214 -76 48 -145 66 -228 60 -41 -3
-92 -9 -113 -12 l-37 -6 10 28 c28 72 105 119 221 135 187 26 365 -66 483
-248 41 -64 116 -203 116 -216 0 -3 -21 -22 -47 -42 -27 -20 -53 -46 -59 -57
-15 -28 -1 -88 27 -110 39 -32 71 -23 151 44 l47 39 83 -40 c136 -65 211 -86
310 -86 104 0 123 11 177 100 48 79 88 105 160 105 44 0 73 -8 129 -35 89 -42
160 -63 189 -56 42 11 63 38 63 81 0 66 -19 78 -175 110 -49 10 -68 20 -102
55 -54 54 -58 92 -12 137 28 29 33 30 87 25 31 -3 67 -9 80 -13 12 -3 22 -2
22 4 0 14 -123 35 -159 27 -35 -8 -67 -43 -76 -86 -15 -69 62 -148 165 -169
107 -22 130 -31 146 -55 21 -32 12 -68 -23 -90 -25 -17 -29 -17 -82 0 -31 9
-87 32 -125 51 -54 26 -82 34 -126 34 -78 0 -115 -23 -170 -105 -25 -38 -58
-78 -73 -89 -43 -32 -138 -27 -257 14 -94 32 -211 87 -209 99 0 5 85 82 306
279 21 19 58 53 83 76 25 23 115 105 200 181 85 77 157 142 160 145 3 3 73 66
155 140 83 74 167 151 188 170 21 19 45 39 53 43 14 8 10 27 -5 27 -5 0 -125
-87 -267 -193z m-1534 -489 c77 -35 96 -50 121 -101 27 -51 17 -98 -27 -137
-97 -85 -218 -86 -311 -3 -54 50 -84 113 -91 189 l-5 62 74 12 c41 7 79 13 84
15 24 7 95 -9 155 -37z"/>
</g>
</svg>
